PathFileType  4	(X/Y/Z)
DataRate	CameraRate	NumFrames	NumMarkers	Units	OrigDataRate	OrigDataStartFrame	OrigNumFrames
  100.0 	  100.0 	    5 	     42 	mm 	  100.0 	      208 	    237
Frame#	Time	R.Shoulder			R.Clavicle			R.Bicep			R.Elbow			R.Forearm			R.Wrist			L.Shoulder			L.Clavicle			L.Scapula			L.Bicep			L.Elbow			L.Forearm			L.Wrist			R.ASIS			R.Iliac			S2			L.Iliac			L.ASIS			R.TH1			R.TH2			R.TH3			R.Knee			R.SH1			R.SH2			R.SH3			R.SH4			R.Ankle			R.Heel			R.MT5			L.TH1			L.TH2			L.TH3			L.TH4			L.Knee			L.SH1			L.SH2			L.SH3			L.Ankle			L.Heel			L.MT5			R_HJC			L_HJC			
		X1	Y1	Z1	X2	Y2	Z2	X3	Y3	Z3	X4	Y4	Z4	X5	Y5	Z5	X6	Y6	Z6	X7	Y7	Z7	X8	Y8	Z8	X9	Y9	Z9	X10	Y10	Z10	X11	Y11	Z11	X12	Y12	Z12	X13	Y13	Z13	X14	Y14	Z14	X15	Y15	Z15	X16	Y16	Z16	X17	Y17	Z17	X18	Y18	Z18	X19	Y19	Z19	X20	Y20	Z20	X21	Y21	Z21	X22	Y22	Z22	X23	Y23	Z23	X24	Y24	Z24	X25	Y25	Z25	X26	Y26	Z26	X27	Y27	Z27	X28	Y28	Z28	X29	Y29	Z29	X30	Y30	Z30	X31	Y31	Z31	X32	Y32	Z32	X33	Y33	Z33	X34	Y34	Z34	X35	Y35	Z35	X36	Y36	Z36	X37	Y37	Z37	X38	Y38	Z38	X39	Y39	Z39	X40	Y40	Z40	X41	Y41	Z41	X42	Y42	Z42	

208	2.07000	951.103	1422.154	-34.351	1021.182	1405.566	-191.188	973.700	1250.223	-18.257	907.444	1113.930	31.882	1008.956	1000.434	16.985	1024.416	897.775	54.998	910.102	1420.894	-419.680	1025.854	1406.323	-256.963	814.122	1309.459	-278.042	951.277	1255.929	-434.869	872.544	1124.890	-489.098	945.011	1004.228	-507.052	921.190	889.710	-544.500	1022.333	953.697	-77.165	916.341	1025.133	-64.267	846.733	967.532	-236.173	952.587	1041.119	-381.937	1049.970	964.577	-350.831	1115.540	754.295	-80.867	1145.529	673.023	-85.597	1024.572	623.225	-18.953	1063.796	501.135	-43.568	1027.242	359.203	-72.578	969.919	314.602	-86.901	953.308	443.031	-44.497	895.970	398.742	-58.995	790.792	242.012	-103.944	732.725	265.423	-181.090	802.009	106.916	-65.931	1084.234	761.342	-361.835	1090.352	679.664	-339.430	948.277	734.545	-423.878	956.024	650.547	-398.040	984.697	496.024	-358.520	1012.597	365.189	-332.537	1006.704	290.295	-323.900	894.026	294.847	-345.945	920.067	92.575	-298.236	861.100	46.424	-235.889	1044.031	37.002	-321.687	955.446	857.871	-125.082	975.833	867.481	-333.675
209	2.08000	960.501	1423.094	-34.888	1031.806	1406.476	-191.267	982.783	1251.151	-18.422	915.582	1115.045	30.542	1015.731	1000.195	17.833	1028.917	897.289	56.218	922.411	1422.070	-420.440	1036.794	1407.270	-257.048	825.243	1310.429	-279.393	966.000	1257.486	-434.567	890.635	1125.228	-490.263	965.901	1006.062	-506.511	945.447	890.942	-544.186	1032.534	955.579	-78.486	926.909	1026.952	-64.816	856.911	968.647	-235.987	962.918	1041.204	-382.547	1060.212	964.474	-351.885	1128.510	759.793	-81.386	1160.547	679.323	-86.078	1041.425	626.660	-18.247	1083.768	504.928	-43.549	1052.499	361.556	-72.666	996.874	314.782	-86.757	975.373	442.363	-44.146	919.700	395.868	-58.367	820.750	234.693	-103.046	760.798	255.132	-179.707	839.218	100.643	-65.245	1091.822	759.775	-362.528	1096.727	678.064	-339.914	955.041	735.239	-423.549	961.513	651.188	-397.532	987.044	496.269	-358.390	1014.064	365.410	-332.446	1007.824	290.545	-323.827	895.067	295.756	-345.590	920.288	92.883	-298.150	861.256	46.626	-235.859	1044.135	36.961	-321.655	965.610	859.327	-124.979	985.653	867.799	-333.655
210	2.09000	969.983	1423.792	-35.424	1042.462	1407.158	-191.383	991.875	1251.832	-18.544	923.707	1115.917	29.213	1022.455	999.749	18.743	1033.320	896.641	57.448	934.613	1422.956	-421.159	1047.751	1407.994	-257.160	836.347	1311.154	-280.625	980.607	1258.822	-434.174	908.696	1125.392	-491.320	986.757	1007.856	-505.770	969.813	892.203	-543.646	1042.887	957.138	-79.887	937.682	1028.527	-65.292	867.110	969.477	-235.578	973.029	1041.094	-383.109	1070.324	964.184	-353.062	1141.161	764.854	-82.191	1175.110	685.195	-86.846	1057.984	629.944	-17.533	1103.116	508.409	-43.502	1077.495	363.669	-72.820	1023.828	314.623	-86.695	997.129	440.989	-43.625	943.336	392.202	-57.633	851.283	226.574	-102.187	789.421	243.629	-178.320	877.548	94.131	-64.585	1099.238	758.094	-363.399	1103.036	676.372	-340.597	961.582	735.856	-423.136	966.843	651.742	-396.990	989.308	496.497	-358.251	1015.427	365.652	-332.586	1008.765	290.782	-323.962	895.915	296.723	-345.026	920.499	93.162	-297.992	861.399	46.840	-235.792	1044.234	36.924	-321.628	975.929	860.528	-124.878	995.351	867.911	-333.654
211	2.10000	979.579	1424.233	-35.950	1053.168	1407.592	-191.535	1001.006	1252.237	-18.641	931.853	1116.534	27.930	1029.142	999.082	19.682	1037.643	895.816	58.669	946.724	1423.540	-421.841	1058.737	1408.477	-257.300	847.430	1311.642	-281.743	995.095	1259.921	-433.706	926.719	1125.363	-492.254	1007.541	1009.595	-504.823	994.254	893.501	-542.879	1053.352	958.361	-81.328	948.618	1029.841	-65.697	877.334	970.009	-234.986	982.935	1040.794	-383.612	1080.316	963.705	-354.326	1153.509	769.394	-83.301	1189.223	690.537	-87.925	1074.235	633.018	-16.833	1121.805	511.538	-43.458	1102.230	365.554	-73.046	1050.768	314.141	-86.719	1018.606	438.890	-42.931	966.934	387.743	-56.784	882.418	217.760	-101.378	818.733	231.035	-176.938	916.883	87.536	-63.961	1106.498	756.313	-364.363	1109.280	674.600	-341.395	967.945	736.391	-422.635	972.062	652.210	-396.412	991.550	496.696	-358.087	1016.758	365.887	-332.877	1009.604	290.988	-324.223	896.663	297.730	-344.305	920.710	93.419	-297.742	861.513	47.083	-235.691	1044.321	36.897	-321.606	986.376	861.460	-124.778	1004.949	867.815	-333.666
212	2.11000	989.318	1424.406	-36.454	1063.936	1407.768	-191.726	1010.198	1252.345	-18.735	940.059	1116.894	26.724	1035.813	998.189	20.616	1041.919	894.813	59.867	958.757	1423.819	-422.491	1069.755	1408.703	-257.470	858.497	1311.906	-282.755	1009.459	1260.770	-433.181	944.686	1125.134	-493.055	1028.223	1011.271	-503.664	1018.736	894.850	-541.876	1063.892	959.242	-82.765	959.676	1030.882	-66.029	887.582	970.242	-234.253	992.660	1040.302	-384.044	1090.204	963.038	-355.635	1165.582	773.344	-84.713	1202.894	695.253	-89.327	1090.156	635.827	-16.166	1139.795	514.263	-43.456	1126.703	367.214	-73.352	1077.676	313.357	-86.839	1039.840	436.055	-42.074	990.551	382.507	-55.806	914.175	208.369	-100.615	848.877	217.499	-175.558	957.103	80.990	-63.372	1113.626	754.442	-365.337	1115.455	672.758	-342.221	974.191	736.833	-422.051	977.223	652.596	-395.799	993.844	496.860	-357.887	1018.142	366.079	-333.213	1010.447	291.150	-324.523	897.422	298.752	-343.494	920.929	93.661	-297.397	861.592	47.363	-235.561	1044.390	36.883	-321.591	996.926	862.114	-124.672	1014.467	867.509	-333.676
